<svg version="1.1" xmlns="http://www.w3.org/2000/svg" viewBox="0 0 725 404">
  <!-- svg-source:excalidraw -->
  <defs>
    <style>
      @font-face {
        font-family: "Virgil";
        src: url("https://excalidraw.com/FG_Virgil.woff2");
      }
      @font-face {
        font-family: "Cascadia";
        src: url("https://excalidraw.com/Cascadia.woff2");
      }
    </style>
  </defs>
  <g transform="translate(254 18) rotate(0 21.5 13)"><text x="0" y="18" font-family="Virgil, Segoe UI Emoji" font-size="20px" fill="#000000" text-anchor="start" style="white-space: pre;" direction="ltr">code</text></g><g transform="translate(233 10) rotate(0 41 19)"><path d="M1.4552187733352184 0.8654076643288136 C16.31332381181419 0.550131059549749, 34.73293321430683 -2.1250804892554878, 81.15634284541011 -0.1745092086493969 M-0.42876978777348995 0.8535743858665228 C26.579736231267457 -0.5114822201803326, 52.15127058587969 0.1913741416856647, 82.34960208274424 -0.35786385275423527 M83.52077327296138 1.246659118682146 C83.24739340711385 10.672696459665897, 82.4451250212267 18.080503362417225, 83.87629721686244 36.742955166846514 M81.04250130988657 0.5807295348495245 C82.2824131623283 12.888550367951394, 81.6314834133163 27.51746762134135, 82.73882094956934 37.62605666182935 M80.92703745886683 37.02517696097493 C62.79187327064574 40.510452337898315, 43.95429743081331 37.2965979057923, 1.0374251417815685 39.54901893809438 M82.10296956636012 38.443937769159675 C53.878096016496414 38.83324560973793, 26.67047443501651 38.53912702653557, 0.15626285411417484 38.96423094533384 M0.22467051073908806 39.07022388651967 C0.6222526065632701 26.596010042354465, 0.7955167524144053 13.340138025581837, 1.7021045498549938 -1.7112739495933056 M0.14625070430338383 37.66774742864072 C-0.04878384072333575 28.04980973228812, 0.3297930936142802 18.656166698411106, -0.4790658559650183 -0.987933287397027" stroke="#000000" stroke-width="1" fill="none"></path></g><g><g transform="translate(316 32) rotate(0 24.3226947612269 -2.0856517307460365)"><path d="M0.4195224992930888 -0.42943662330508225 C8.509616882850727 -1.1167812459170818, 41.24370121086637 -3.465516936033964, 49.464756440371275 -3.7418668381869793 M-0.8193669179175049 -1.7004947958793493 C6.985005728195731 -2.281827597161755, 39.9580254776186 -2.218836539229378, 48.23570810793899 -2.593921677013859" stroke="#000000" stroke-width="1" fill="none"></path></g><g transform="translate(316 32) rotate(0 24.3226947612269 -2.0856517307460365)"><path d="M24.15652560648907 5.536144050963949 C32.41546565375008 2.521471548518281, 43.98107630713686 0.7902184355328119, 49.71802601381205 -1.6262872785236686 M24.243730895420796 7.022646074377726 C32.43841264996977 3.553616691727773, 39.581638233463515 0.7629291788529882, 48.63108482933603 -3.364203120386228" stroke="#000000" stroke-width="1" fill="none"></path></g><g transform="translate(316 32) rotate(0 24.3226947612269 -2.0856517307460365)"><path d="M23.82321695423372 -11.59237460797366 C32.26237410467715 -8.150489430003002, 43.95364740121272 -3.424019608581892, 49.71802601381205 -1.6262872785236686 M23.91042224316545 -10.105872584559883 C32.10255774286048 -7.857061255407453, 39.3571092414795 -4.926781125996941, 48.63108482933603 -3.364203120386228" stroke="#000000" stroke-width="1" fill="none"></path></g></g><g><g transform="translate(231 30.271157075580618) rotate(0 -23.220694466987624 0.81627560970567)"><path d="M-0.7542268998920918 0.7133153088390827 C-8.34738599533836 0.8198177245208189, -38.62426510726412 1.5450007661921612, -46.356727028638126 1.7647928242078819 M1.0506652483250947 0.042201900640502554 C-6.661923661042625 0.2921565139335708, -39.8406231575304 -0.1344436374469021, -47.49205418230034 -0.13224160479653402" stroke="#000000" stroke-width="1" fill="none"></path></g><g transform="translate(231 30.271157075580618) rotate(0 -23.220694466987624 0.81627560970567)"><path d="M-24.6283871917447 -8.45002279737253 C-30.09026829128946 -8.103184069944042, -34.70628893580177 -3.593911159072423, -49.03261706904508 -0.6433476600264363 M-26.43612287514116 -7.659196027826856 C-31.980705175311464 -6.001726331405594, -40.11862422575206 -2.8354192604611352, -46.529975452655925 0.370117060893292" stroke="#000000" stroke-width="1" fill="none"></path></g><g transform="translate(231 30.271157075580618) rotate(0 -23.220694466987624 0.81627560970567)"><path d="M-24.734928500420267 7.289169332144312 C-30.319587196094012 3.961277886725605, -34.91072842479394 4.79515098874209, -49.03261706904508 -0.6433476600264363 M-26.542664183816726 8.079996101689986 C-32.16943980218025 4.701631211013604, -40.27326772206823 2.8317052907342273, -46.529975452655925 0.370117060893292" stroke="#000000" stroke-width="1" fill="none"></path></g></g><g transform="translate(378 16) rotate(0 79 13)"><text x="0" y="18" font-family="Virgil, Segoe UI Emoji" font-size="20px" fill="#000000" text-anchor="start" style="white-space: pre;" direction="ltr">runtime analyzer</text></g><g transform="translate(368 11) rotate(0 91.5 18)"><path d="M-1.975866574794054 -1.0554318837821484 C60.07663671951741 0.7811674756743014, 118.66549789346755 0.2722843570448459, 183.710280995816 1.973949033766985 M-0.8616741504520178 0.1270835306495428 C59.86746002417058 -0.8018745708651842, 118.41243015155197 -1.8201829123683275, 183.81377337314188 -0.3455050680786371 M181.917912106961 -1.464684884995222 C180.85678972907365 10.329825262725354, 181.44739701457323 22.783595206588508, 181.50675056502223 35.35652418807149 M182.61095116473734 0.22367303632199764 C184.1167018802464 8.772644500806928, 183.5626082213223 16.719982893392444, 183.38293532468379 36.671057811006904 M184.53155086562037 37.49183436110616 C116.87825436461716 37.800465875472874, 51.950524727627624 38.68116252979264, 1.9751065783202648 36.36964209750295 M183.17655781842768 36.6224533226341 C137.75208650324493 35.08518227742985, 92.24611227363347 34.82063141273335, 0.49582324363291264 35.88379340432584 M1.2047713808715343 35.51932604983449 C1.227519101127982 23.22647176682949, -1.939251237884164 11.12632454559207, 1.2167894653975964 -0.3557157926261425 M-0.22826971672475338 35.1925039794296 C-0.5692872989177704 23.78204481638968, -0.7547629463672638 9.64971332363784, -0.5105877723544836 -0.5823593232780695" stroke="#000000" stroke-width="1" fill="none"></path></g><g transform="translate(22 16) rotate(0 75 13)"><text x="0" y="18" font-family="Virgil, Segoe UI Emoji" font-size="20px" fill="#000000" text-anchor="start" style="white-space: pre;" direction="ltr">static analyzer</text></g><g transform="translate(10 11) rotate(0 85 16)"><path d="M0.8309632129967213 -0.5747454352676868 C54.55924085713923 -3.2562132684513925, 106.62793064117432 -2.6272492019459603, 169.16009159758687 0.7815071158111095 M0.8565229680389166 -0.7798097934573889 C51.9063522219658 -0.824955806694925, 103.42412848211826 -1.4986612057313324, 170.7810271885246 0.9634172711521387 M171.72472305968404 -1.893185991793871 C168.27135245814918 5.440295218676329, 169.81923966422676 14.271926300972702, 168.30722745135427 32.1763043217361 M169.68084799312055 0.2134759221225977 C170.45302833043039 7.063066432252526, 169.06862730704248 13.658729711547494, 170.60607509873807 31.851091185584664 M169.3901389427483 33.39690540358424 C116.63620734028518 30.4283602071926, 66.72488514333962 31.597554071061314, 1.6509460993111134 32.81915984675288 M169.70500784181058 32.43353203870356 C103.87285808846354 32.92217598389834, 39.15404108352959 33.892113010399044, -0.7113883588463068 32.57253012992442 M-0.7136826924979687 33.82275043055415 C1.8608361233770847 20.286347209662196, 1.7929320086538791 6.960740344971416, 1.2011352367699146 -0.0009858794510364532 M-0.48512102104723454 32.72319302894175 C-0.8614665261656046 22.28499947525561, -0.1808307758718729 10.996321073547005, 0.8578726556152105 0.3709592018276453" stroke="#000000" stroke-width="1" fill="none"></path></g><g><g transform="translate(456 54) rotate(0 -0.028064274042833404 19.56528786164708)"><path d="M-1.1597943417727947 0.36732828542590146 C-0.7789426041146119 6.828223450233539, 0.5998320308824381 31.925296059499185, 1.1036657936871053 38.05152707025409 M0.4321748994570225 -0.48542831006459886 C0.7674525105735908 6.246804564467943, 0.023624978143100966 33.20465327895867, 0.21004487174563113 39.61600403335877" stroke="#000000" stroke-width="1" fill="none"></path></g><g transform="translate(456 54) rotate(0 -0.028064274042833404 19.56528786164708)"><path d="M-5.657823197244138 21.901391800826488 C-4.964463027493546 26.770159756321576, -5.132517022786239 30.727054949206945, 1.7496897949945462 40.295546414497004 M-5.7743672103445665 22.152366819505193 C-3.8335619509476357 28.53734168329976, -2.260567354767045 33.88255982948549, -0.013077218682621683 40.31722118878013" stroke="#000000" stroke-width="1" fill="none"></path></g><g transform="translate(456 54) rotate(0 -0.028064274042833404 19.56528786164708)"><path d="M7.3433888684007265 21.938468352294066 C5.416623659702418 26.67410756515903, 2.628223728704264 30.623530116996974, 1.7496897949945462 40.295546414497004 M7.226844855300298 22.18944337097277 C4.830354861396231 28.440283760654385, 2.0663663495238183 33.77313380018914, -0.013077218682621683 40.31722118878013" stroke="#000000" stroke-width="1" fill="none"></path></g></g><g transform="translate(382 99) rotate(0 85.5 13)"><text x="0" y="18" font-family="Virgil, Segoe UI Emoji" font-size="20px" fill="#000000" text-anchor="start" style="white-space: pre;" direction="ltr">compile typescript</text></g><g><g transform="translate(459 130) rotate(0 0.6124730832875116 24.573729666233987)"><path d="M-1.1992481343448163 -0.9066929586231709 C-0.8383925311267375 7.020796647916237, 1.6400637038052084 40.44837971453865, 2.4241943009197713 48.68309969827533 M0.3720078657846897 1.2316892927605658 C0.5017913718800991 9.847978690934056, 0.7349782793503254 41.99985585289386, 1.1738508452754468 50.05415229109116" stroke="#000000" stroke-width="1" fill="none"></path></g><g transform="translate(459 130) rotate(0 0.6124730832875116 24.573729666233987)"><path d="M-9.362118720409367 26.267896863828046 C-5.264156892057781 35.50108658765838, -2.6643358732390903 43.05629708236982, -0.05582508471794423 48.36733558011241 M-8.29039701573262 27.34630331509803 C-5.965976226476766 33.714297234844494, -2.8058788968996193 40.34709537610508, 0.9917980448435992 50.18342264537699" stroke="#000000" stroke-width="1" fill="none"></path></g><g transform="translate(459 130) rotate(0 0.6124730832875116 24.573729666233987)"><path d="M7.421929134411762 25.807262899919987 C6.126628228374345 35.02085184133928, 3.328894317624478 42.72419687094508, -0.05582508471794423 48.36733558011241 M8.49365083908851 26.88566935118997 C6.061285898507093 33.45542522861812, 4.462648845673172 40.218825635834826, 0.9917980448435992 50.18342264537699" stroke="#000000" stroke-width="1" fill="none"></path></g></g><g transform="translate(358 182) rotate(0 115.5 13)"><text x="0" y="18" font-family="Virgil, Segoe UI Emoji" font-size="20px" fill="#000000" text-anchor="start" style="white-space: pre;" direction="ltr">inject listeners to AST</text></g><g><g transform="translate(464 221) rotate(0 0.8133842818439234 25.3285918460833)"><path d="M-0.2634563215076924 0.299904502183199 C0.23283923392494515 8.7493274576962, 1.3614059838155907 42.86157809570432, 1.8902248851954937 51.245433271676305 M1.7990903803613039 -0.5882495795097202 C2.2229198135839154 7.428988175848498, 0.7475252563661584 40.5349833841715, 0.8845474862959235 49.25171099052764" stroke="#000000" stroke-width="1" fill="none"></path></g><g transform="translate(464 221) rotate(0 0.8133842818439234 25.3285918460833)"><path d="M-6.944873411268947 24.946700335954155 C-5.181415857402118 31.714164587864648, -4.50817316542526 34.79789496585558, 0.3487913565244525 47.76757079184986 M-8.229055604026673 24.188073727776136 C-4.819320804587623 31.332816284946418, -3.2301666611536977 37.606261808142705, 1.4147546825464814 48.88328120120801" stroke="#000000" stroke-width="1" fill="none"></path></g><g transform="translate(464 221) rotate(0 0.8133842818439234 25.3285918460833)"><path d="M10.509159885554485 25.236242234321274 C8.616925282641695 31.90476502515839, 5.6358002199743575 34.927873737141404, 0.3487913565244525 47.76757079184986 M9.22497769279676 24.477615626143255 C8.214205217313904 31.650511488604117, 5.380097480842758 37.85058029594896, 1.4147546825464814 48.88328120120801" stroke="#000000" stroke-width="1" fill="none"></path></g></g><g transform="translate(314 275) rotate(0 200.5 11.874715261958983)"><text x="0" y="16.74943052391798" font-family="Virgil, Segoe UI Emoji" font-size="18.268792710706137px" fill="#000000" text-anchor="start" style="white-space: pre;" direction="ltr">safe code evaluation and collect diagnostics</text></g><g><g transform="translate(81 50) rotate(0 1.3779425624711337 19.05895583704114)"><path d="M0.7085353843867779 -0.6884602658450604 C1.2950777761638164 5.932666536917288, 2.5559445850551126 32.167731862018506, 3.134507393091917 38.80637193992734 M-0.3786222681496292 1.5644941492471847 C0.09533359049819418 7.931080271660662, 1.52169662325643 31.13436787780064, 2.257078310837969 37.10714245961048" stroke="#000000" stroke-width="1" fill="none"></path></g><g transform="translate(81 50) rotate(0 1.3779425624711337 19.05895583704114)"><path d="M-6.904649600666741 20.053669052754234 C-2.501109449762148 26.29291442226298, 0.19594248659797175 27.94270671547685, 1.6457860374558815 36.745157084461454 M-4.927027842260716 20.426474933242975 C-4.027335668521123 25.78143873599166, -0.2632586297288424 30.924185302589414, 2.9036816620674704 36.1790561544169" stroke="#000000" stroke-width="1" fill="none"></path></g><g transform="translate(81 50) rotate(0 1.3779425624711337 19.05895583704114)"><path d="M6.0820498157758385 18.90721785840167 C6.997169724803191 25.530320252654896, 6.2145945936769085 27.48729010342203, 1.6457860374558817 36.745157084461454 M8.059671574181863 19.28002373889041 C5.05369692139314 24.865456148428034, 4.919144083316281 30.352369368564883, 2.9036816620674704 36.1790561544169" stroke="#000000" stroke-width="1" fill="none"></path></g></g><g transform="translate(46 95) rotate(0 54.5 13)"><text x="0" y="18" font-family="Virgil, Segoe UI Emoji" font-size="20px" fill="#000000" text-anchor="start" style="white-space: pre;" direction="ltr">parse AST</text></g><g><g transform="translate(76 137) rotate(0 -0.995249769524662 21.209780039014277)"><path d="M0.5187122471630574 -0.4411171920597553 C0.433217498411735 6.5751991661886375, -1.24157359128197 35.667841894676286, -1.3679779164493082 42.73799507543445 M-0.6681025524158031 -1.7183076632302254 C-0.8690033330737302 5.423442531299466, -2.519518595657622 36.724535677603754, -2.5092117862123997 44.137867741258816" stroke="#000000" stroke-width="1" fill="none"></path></g><g transform="translate(76 137) rotate(0 -0.995249769524662 21.209780039014277)"><path d="M-9.989783428969513 23.103995848155602 C-8.039337217360634 29.62646920295942, -7.759992985797396 32.39243653061263, -3.2410614976007492 45.020449314238505 M-9.967042377578746 22.837287531874164 C-8.247817918110702 28.571716966783097, -6.367370685888492 34.91893310868271, -2.5536430050898344 43.39850130860694" stroke="#000000" stroke-width="1" fill="none"></path></g><g transform="translate(76 137) rotate(0 -0.995249769524662 21.209780039014277)"><path d="M4.714427672704112 23.545658606788738 C3.2989412509895546 30.030662405599795, 0.21470874068023216 32.695599724066, -3.2410614976007492 45.020449314238505 M4.737168724094879 23.2789502905073 C2.710368353721527 28.945999835453605, 0.8448374474035152 35.18069997584813, -2.5536430050898344 43.39850130860694" stroke="#000000" stroke-width="1" fill="none"></path></g></g><g transform="translate(14 193) rotate(0 106 26)"><text x="0" y="18" font-family="Virgil, Segoe UI Emoji" font-size="20px" fill="#000000" text-anchor="start" style="white-space: pre;" direction="ltr">visit AST nodes and </text><text x="0" y="44" font-family="Virgil, Segoe UI Emoji" font-size="20px" fill="#000000" text-anchor="start" style="white-space: pre;" direction="ltr">collect diagnostics</text></g><g><g transform="translate(73 267) rotate(0 39.5544854510529 45.59218717486132)"><path d="M0.1689325086772442 -0.6588736407458782 C13.631669409324724 14.547390847156445, 67.1507253559927 75.43032579099138, 80.31048755571246 90.54480179622769 M-1.2015166536066682 1.6096137525234373 C12.171135831068582 17.041034844775375, 65.73123729893626 76.97232361948427, 79.5254480588343 91.84324799046851" stroke="#000000" stroke-width="1" fill="none"></path></g><g transform="translate(73 267) rotate(0 39.5544854510529 45.59218717486132)"><path d="M51.88391937385606 78.38046972188289 C59.075066659546195 80.02272059877724, 65.14610016223439 84.69143229082283, 79.58993239804171 92.56678587139584 M53.043170346648566 78.58417738895054 C63.91271456446831 84.01930831795275, 74.6603696449006 88.25488726413603, 79.1692713639792 92.83801064022816" stroke="#000000" stroke-width="1" fill="none"></path></g><g transform="translate(73 267) rotate(0 39.5544854510529 45.59218717486132)"><path d="M67.08023301379508 64.5894561934129 C70.22290753922356 69.85492905677042, 72.32508669095438 78.12546980706384, 79.58993239804171 92.56678587139584 M68.23948398658759 64.79316386048055 C73.14404945104445 75.67069541500285, 77.8914019154255 85.35169069790823, 79.1692713639792 92.83801064022816" stroke="#000000" stroke-width="1" fill="none"></path></g></g><g><g transform="translate(476 315) rotate(0 -84.87078195132779 21.641060272464557)"><path d="M0.2254398576915264 0.6073706276714801 C-27.872063415000838 7.39356116130948, -140.8490142432352 34.8667981274426, -169.0124316699803 41.91085838153958 M-1.1153429463598878 -0.11936373814009138 C-29.334556726027902 7.368944573858754, -141.9208655898863 36.550443932572385, -169.96700376034715 43.40148428306915" stroke="#000000" stroke-width="1" fill="none"></path></g><g transform="translate(476 315) rotate(0 -84.87078195132779 21.641060272464557)"><path d="M-144.14142432703915 26.519555251037367 C-151.69474582945426 31.452921961853924, -156.65348631901327 35.8070380566814, -169.72395892576316 43.418694487223405 M-144.61730650148633 27.21111251126755 C-151.12581938576648 30.89614243837918, -156.65677428567895 34.25182677704849, -169.57540358924308 44.33334364780225" stroke="#000000" stroke-width="1" fill="none"></path></g><g transform="translate(476 315) rotate(0 -84.87078195132779 21.641060272464557)"><path d="M-139.10845598573792 46.41400754461156 C-148.19030796842262 46.0970878576322, -154.4796763574605 45.19146229077517, -169.72395892576316 43.418694487223405 M-139.5843381601851 47.10556480484174 C-147.18739606944385 46.06814262074891, -153.91462833874718 44.69514967767806, -169.57540358924308 44.33334364780225" stroke="#000000" stroke-width="1" fill="none"></path></g></g><g transform="translate(179 362) rotate(0 53 13)"><text x="0" y="18" font-family="Virgil, Segoe UI Emoji" font-size="20px" fill="#000000" text-anchor="start" style="white-space: pre;" direction="ltr">diagnostics</text></g><g transform="translate(164 356) rotate(0 69 19)"><path d="M1.2902086563408375 -0.3379497714340687 C52.74539322592318 3.0579054548218845, 109.4020739197731 2.8083828880265354, 138.86063190177083 -0.43746962025761604 M0.7646661307662725 -0.801201781257987 C33.02614465355873 0.698056336082518, 67.64729381538928 0.5410478669777512, 137.0168261434883 -0.7852276768535376 M137.96682830527425 -1.2308761067688465 C138.14484273206443 12.88300240598619, 139.3206062198803 24.606603056192398, 139.62827404215932 36.41628907248378 M138.6043605711311 -0.9108709301799536 C137.00697488810866 12.1844958871603, 137.48215867307036 24.491633715853094, 137.69818585179746 37.129252115264535 M137.6843910999596 39.24278615042567 C93.3520553033799 36.635214288942514, 51.77028789669275 38.607073863260446, -0.23977641388773918 39.75272522494197 M137.37838690541685 38.114311376586556 C84.10906031057237 38.30853513132781, 30.446352596953503 38.86474916588515, -0.9151874873787165 38.984796741977334 M0.8629409857094288 37.02432117983699 C-0.9971113262698055 29.261407332494855, -1.5636040030047298 20.023987106978893, 1.9773057289421558 -1.4751582331955433 M0.2546528484672308 38.34764836169779 C-0.8610337756201625 26.162818024307487, 0.1447629548981786 12.36663858108222, -0.08702678419649601 -0.8698999490588903" stroke="#000000" stroke-width="1" fill="none"></path></g></svg>